HIERARCHY
ROOT Hips
{
	OFFSET 0.000000 0.000000 0.000000
	CHANNELS 6 Xposition Yposition Zposition Zrotation Yrotation Xrotation 
	JOINT LHipJoint
	{
		OFFSET 0.000000 0.000000 0.000000
		CHANNELS 3 Zrotation Yrotation Xrotation
		JOINT LeftUpLeg
		{
			OFFSET 1.363060 -1.794630 0.839290
			CHANNELS 3 Zrotation Yrotation Xrotation
			JOINT LeftLeg
			{
				OFFSET 2.448110 -6.726130 0.000000
				CHANNELS 3 Zrotation Yrotation Xrotation
				JOINT LeftFoot
				{
					OFFSET 2.562200 -7.039590 0.000000
					CHANNELS 3 Zrotation Yrotation Xrotation
					JOINT LeftToeBase
					{
						OFFSET 0.157640 -0.433110 2.322550
						CHANNELS 3 Zrotation Yrotation Xrotation
						End Site
						{
							OFFSET 0.000000 0.000000 0.000000
						}
					}
				}
			}
		}
	}
	JOINT RHipJoint
	{
		OFFSET 0.000000 0.000000 0.000000
		CHANNELS 3 Zrotation Yrotation Xrotation
		JOINT RightUpLeg
		{
			OFFSET -1.305520 -1.794630 0.839290
			CHANNELS 3 Zrotation Yrotation Xrotation
			JOINT RightLeg
			{
				OFFSET -2.542530 -6.985550 0.000000
				CHANNELS 3 Zrotation Yrotation Xrotation
				JOINT RightFoot
				{
					OFFSET -2.568260 -7.056230 0.000000
					CHANNELS 3 Zrotation Yrotation Xrotation
					JOINT RightToeBase
					{
						OFFSET -0.164730 -0.452590 2.363150
						CHANNELS 3 Zrotation Yrotation Xrotation
						End Site
						{
							OFFSET 0.000000 0.000000 0.000000
						}
					}
				}
			}
		}
	}
	JOINT LowerBack
	{
		OFFSET 0.000000 0.000000 0.000000
		CHANNELS 3 Zrotation Yrotation Xrotation
		JOINT Spine
		{
			OFFSET 0.028270 2.035590 -0.193380
			CHANNELS 3 Zrotation Yrotation Xrotation
			JOINT Spine1
			{
				OFFSET 0.056720 2.048850 -0.042750
				CHANNELS 3 Zrotation Yrotation Xrotation
				JOINT Neck
				{
					OFFSET 0.000000 0.000000 0.000000
					CHANNELS 3 Zrotation Yrotation Xrotation
					JOINT Neck1
					{
						OFFSET -0.054170 1.746240 0.172020
						CHANNELS 3 Zrotation Yrotation Xrotation
						JOINT Head
						{
							OFFSET 0.104070 1.761360 -0.123970
							CHANNELS 3 Zrotation Yrotation Xrotation
							End Site
							{
								OFFSET 0.000000 0.000000 0.000000
							}
						}
					}
				}
				JOINT LeftShoulder
				{
					OFFSET 0.000000 0.000000 0.000000
					CHANNELS 3 Zrotation Yrotation Xrotation
					JOINT LeftArm
					{
						OFFSET 3.362410 1.200890 -0.311210
						CHANNELS 3 Zrotation Yrotation Xrotation
						JOINT LeftForeArm
						{
							OFFSET 4.983000 -0.000000 -0.000000
							CHANNELS 3 Zrotation Yrotation Xrotation
							JOINT LeftHand
							{
								OFFSET 3.483560 -0.000000 -0.000000
								CHANNELS 3 Zrotation Yrotation Xrotation
								JOINT LeftFingerBase
								{
									OFFSET 0.000000 0.000000 0.000000
									CHANNELS 3 Zrotation Yrotation Xrotation
									JOINT LeftHandIndex1
									{
										OFFSET 0.715260 -0.000000 -0.000000
										CHANNELS 3 Zrotation Yrotation Xrotation
										End Site
										{
											OFFSET 0.000000 0.000000 0.000000
										}
									}
								}
								JOINT LThumb
								{
									OFFSET 0.000000 0.000000 0.000000
									CHANNELS 3 Zrotation Yrotation Xrotation
									End Site
									{
										OFFSET 0.000000 0.000000 0.000000
									}
								}
							}
						}
					}
				}
				JOINT RightShoulder
				{
					OFFSET 0.000000 0.000000 0.000000
					CHANNELS 3 Zrotation Yrotation Xrotation
					JOINT RightArm
					{
						OFFSET -3.136600 1.374050 -0.404650
						CHANNELS 3 Zrotation Yrotation Xrotation
						JOINT RightForeArm
						{
							OFFSET -5.241900 -0.000000 -0.000000
							CHANNELS 3 Zrotation Yrotation Xrotation
							JOINT RightHand
							{
								OFFSET -3.444170 -0.000000 -0.000000
								CHANNELS 3 Zrotation Yrotation Xrotation
								JOINT RightFingerBase
								{
									OFFSET 0.000000 0.000000 0.000000
									CHANNELS 3 Zrotation Yrotation Xrotation
									JOINT RightHandIndex1
									{
										OFFSET -0.622530 -0.000000 -0.000000
										CHANNELS 3 Zrotation Yrotation Xrotation
										End Site
										{
											OFFSET 0.000000 0.000000 0.000000
										}
									}
								}
								JOINT RThumb
								{
									OFFSET 0.000000 0.000000 0.000000
									CHANNELS 3 Zrotation Yrotation Xrotation
									End Site
									{
										OFFSET 0.000000 0.000000 0.000000
									}
								}
							}
						}
					}
				}
			}
		}
	}
}
MOTION
Frames: 4
Frame Time: 0.008333
21.814584 17.872199 26.030631 -177.422795 -53.031642 179.350594 -0.421438 -0.060392 0.212570 -23.198696 3.210671 9.160410 0.435117 4.804910 13.325862 -0.087005 -16.461407 -8.627684 0.767200 5.593300 15.608800 0.467345 0.211149 -0.135316 12.545434 9.275558 -25.796681 -0.577933 -5.581652 15.437083 -0.231097 1.478514 -8.196637 -0.369900 3.906400 -10.813500 -3.840944 2.312931 11.854688 3.050858 2.679505 0.939362 5.226162 1.365111 -5.458292 -0.164107 6.826374 -4.831910 -2.530553 9.070092 -0.944844 -0.638400 4.483300 0.573700 0.035441 -0.105743 0.015681 -85.789210 -2.696012 29.407014 28.451499 -39.517734 -10.516380 -0.023583 0.000010 -5.659075 17.716634 -11.197230 -3.555100 -7.125000 0.000000 0.000000 -6.584400 18.282400 4.214400 0.076931 0.042985 0.017940 83.122027 -0.359183 8.032565 -12.700256 20.905750 -2.392954 0.054762 0.106810 -9.600937 -19.507874 -20.755743 7.214400 7.125000 0.000000 0.000000 9.180800 -51.759600 -1.539000 
21.724232 17.869190 25.952313 -177.170635 -53.098004 179.321725 -0.421498 -0.058164 0.216015 -23.068371 2.924879 9.617981 0.417022 4.730069 13.115020 -0.083421 -16.117584 -8.393788 0.842300 5.854200 16.362000 0.466337 0.212145 -0.139494 12.781538 9.545868 -26.083990 -0.605014 -5.681873 15.726138 -0.147776 2.251017 -5.939092 -0.356200 3.834200 -10.610700 -3.679711 2.335281 11.805432 3.240727 2.740335 0.908345 5.349955 1.393974 -5.480310 -0.370877 6.965125 -4.523205 -2.785352 9.262551 -1.039233 -0.693500 4.580800 0.497900 0.036687 -0.105300 0.015423 -85.919527 -2.265932 29.147129 28.309247 -39.391048 -10.426363 -0.022651 -0.000122 -6.815758 17.018796 -11.603928 -3.528500 -7.125000 0.000000 0.000000 -7.075800 17.911800 4.591900 0.079672 0.042061 0.017842 82.677299 -0.259223 8.220400 -12.713100 20.926445 -2.398195 0.052964 0.109421 -9.481478 -19.014719 -21.465634 7.246100 7.125000 0.000000 0.000000 9.929300 -52.401400 -1.823500 
21.629869 17.863675 25.871989 -176.952843 -53.263954 179.224714 -0.419753 -0.055829 0.217537 -23.086063 2.304632 10.332096 0.404858 4.679737 12.971774 -0.019654 -15.352543 -8.588146 0.809700 5.742500 16.039000 0.466558 0.212260 -0.141566 13.021712 9.679191 -26.234056 -0.640640 -5.810433 16.096407 -0.073257 2.570199 -3.447475 -0.411800 4.119500 -11.413100 -3.351437 2.432772 11.823362 3.219887 2.908496 0.929742 5.107841 1.467497 -5.469613 0.006666 7.007302 -4.454018 -3.122992 9.302480 -1.072241 -0.859800 4.596800 0.514000 0.038250 -0.104464 0.015397 -85.569770 -1.404395 29.336994 29.006778 -40.018016 -10.875475 -0.020220 -0.002045 -6.992970 16.030583 -11.391025 -3.252000 -7.125000 0.000000 0.000000 -7.769500 18.202900 4.999900 0.080005 0.041233 0.018111 82.730439 -0.127722 7.826088 -12.721247 20.938154 -2.401454 0.051942 0.109930 -9.305436 -18.660850 -21.699979 7.175600 7.125000 0.000000 0.000000 10.372100 -52.577500 -1.951200 
21.527985 17.852043 25.785548 -177.138366 -53.528393 179.318773 -0.416394 -0.054373 0.216334 -23.339033 1.829830 11.025544 0.412143 4.710923 13.059055 0.027494 -14.798029 -8.778507 0.728000 5.451500 15.200800 0.467228 0.211752 -0.139922 13.047718 9.550127 -26.127805 -0.676776 -5.939227 16.467570 -0.032483 3.078211 -1.178611 -0.388000 3.999700 -11.075900 -3.237597 2.453905 11.805461 3.099418 2.942130 1.015480 4.895233 1.474914 -5.350336 0.341222 7.114284 -4.568603 -3.247078 9.441370 -0.840739 -0.939400 4.661700 0.633200 0.037262 -0.103576 0.015587 -85.036314 -0.745849 30.065274 29.340591 -40.313695 -11.092018 -0.020465 -0.005485 -7.740013 15.877483 -10.452786 -2.957100 -7.125000 0.000000 0.000000 -7.885300 19.179600 4.903500 0.079830 0.040956 0.018815 82.790497 0.173943 7.818941 -12.593812 20.749715 -2.355317 0.052910 0.107347 -9.482900 -18.825711 -20.965312 7.011800 7.125000 0.000000 0.000000 9.932500 -51.856300 -1.690700 
